<svg width="91" height="18" viewBox="0 0 91 18" fill="none" xmlns="http://www.w3.org/2000/svg">
<g clip-path="url(#clip0_1990_392)">
<path d="M44.3488 0.719482H38.8359V17.7959H44.3488V0.719482Z" fill="#859BA6"/>
<path d="M3.57253 7.0918L0 17.7943H7.58696L3.57253 7.0918Z" fill="#859BA6"/>
<path d="M4.69727 3.9154L5.84402 0.71167H10.0125L16.0979 17.7941H9.61572L4.69727 3.9154Z" fill="#859BA6"/>
<path d="M13.165 3.87272L14.3118 0.71167H18.4585L24.5455 17.7941H18.0399L13.165 3.87272Z" fill="#859BA6"/>
<path d="M86.0957 2.42794C86.0957 -0.809314 91.0002 -0.809314 91.0002 2.42794C91.0002 5.6652 86.0957 5.6652 86.0957 2.42794ZM90.7232 2.42794C90.7232 -0.472481 86.3742 -0.472481 86.3742 2.42794C86.3742 5.32837 90.7232 5.33446 90.7232 2.42794ZM89.7118 3.77985V3.81338H89.3944L88.5884 2.81355H87.8431V3.81338H87.5521V1.05622H88.6584C89.2077 1.05622 89.6184 1.39153 89.6184 1.9387C89.6184 2.38374 89.3275 2.71143 88.8887 2.77849L89.7118 3.77832V3.77985ZM87.8415 2.56207H88.6397C89.0256 2.56207 89.3259 2.33497 89.3259 1.94022C89.3259 1.56986 89.0256 1.31837 88.6397 1.31837H87.8415V2.56207Z" fill="#859BA6"/>
<path d="M70.8574 10.0288L68.2324 17.7943H73.767L70.8574 10.0288Z" fill="#859BA6"/>
<path d="M71.8057 7.84798L72.5992 5.63037H77.054L81.3765 17.7945H75.3782L71.8057 7.84798Z" fill="#859BA6"/>
<path d="M79.4141 7.80354L80.2512 5.63013H84.706L88.9849 17.7942H82.943L79.4141 7.80354Z" fill="#859BA6"/>
<path d="M37.2923 12.7296C37.2923 12.7296 37.8804 5.21256 30.8972 5.21256C30.8972 5.21256 24.443 4.83763 24.443 11.7648C24.443 11.7648 24.25 18 30.8738 18C30.8738 18 34.8665 17.9863 36.4396 15.1347L35.8748 14.7872C35.8748 14.7872 34.3919 16.9423 31.0948 16.9423C31.0948 16.9423 30.1379 16.9118 29.8733 16.8569L29.8827 12.7296H37.2923ZM29.8018 11.7145V7.49419C29.8018 7.12687 30.0289 6.46387 30.8303 6.46387C31.5507 6.46387 31.7856 7.14821 31.7856 7.51553V11.713H29.8002L29.8018 11.7145Z" fill="#859BA6"/>
<path d="M68.5569 12.7296C68.5569 12.7296 69.1451 5.21256 62.1618 5.21256C62.1618 5.21256 55.7076 4.83763 55.7076 11.7648C55.7076 11.7648 55.5147 18 62.1385 18C62.1385 18 66.1311 17.9863 67.7042 15.1347L67.1394 14.7872C67.1394 14.7872 65.6566 16.9423 62.3594 16.9423C62.3594 16.9423 61.4025 16.9118 61.138 16.8569L61.1473 12.7296H68.5569ZM61.0664 11.7145V7.49419C61.0664 7.12687 61.2936 6.46387 62.0949 6.46387C62.8153 6.46387 63.0503 7.14821 63.0503 7.51553V11.713H61.0649L61.0664 11.7145Z" fill="#859BA6"/>
<path d="M45.1279 4.39108L52.6184 1.22241V3.28914H82.7547V4.39108H52.6184V15.4944C52.6184 15.4944 52.6511 16.3159 53.3684 16.3159C54.0857 16.3159 54.7252 15.3755 54.7252 15.3755L55.1718 15.8129C55.1718 15.8129 54.2958 18.0001 51.0531 18.0001C47.8104 18.0001 46.9189 15.7962 46.9189 14.2949V4.39108H45.1295H45.1279Z" fill="#859BA6"/>
</g>
<defs>
<clipPath id="clip0_1990_392">
<rect width="91" height="18" fill="white"/>
</clipPath>
</defs>
</svg>
